Coordinates
version=1
nRows=29
nColumns=22
inDegrees=yes

Units are S.I. units (second, meters, Newtons, ...)
If the header above contains a line with 'inDegrees', this indicates whether rotational values are in degrees (yes) or radians (no).

endheader
time	pelvis_tilt	pelvis_list	pelvis_rotation	pelvis_tx	pelvis_ty	pelvis_tz	hip_flexion_r	hip_adduction_r	hip_rotation_r	knee_angle_r	ankle_angle_r	subtalar_angle_r	hip_flexion_l	hip_adduction_l	hip_rotation_l	knee_angle_l	ankle_angle_l	subtalar_angle_l	lumbar_extension	lumbar_bending	lumbar_rotation
      1.84000000	      4.65102485	     -1.08858817	     28.66337170	      0.33990709	      0.93026885	      0.69711053	     21.67931627	     -3.81079344	      0.27869240	    -47.77747573	     -4.51595067	     10.75979937	     -4.72107733	      3.73014463	    -13.02440167	    -11.57501278	     10.63251277	     -6.60490776	     -8.61023055	     -5.35903474	     -4.21896993
      1.85000000	      4.69411989	     -0.99619152	     29.96258466	      0.34560253	      0.92971661	      0.69081518	     21.63413733	     -3.72736729	      0.14235470	    -44.88252076	     -4.19735877	     10.34291351	     -5.54827916	      3.80814455	    -11.80920951	    -11.12951968	     10.77110137	     -6.65917922	     -8.70146443	     -5.40907786	     -4.66313157
      1.86000000	      4.64865471	     -0.92913880	     31.26758711	      0.35129815	      0.92893018	      0.68453030	     21.61987788	     -3.66434999	      0.01176875	    -41.86848327	     -3.97779496	     10.09385044	     -6.24048171	      3.86779164	    -10.58767441	    -10.77480216	     10.94699113	     -6.71672909	     -8.69625644	     -5.48576988	     -5.12695001
      1.87000000	      4.52560966	     -0.89305525	     32.57023669	      0.35699881	      0.92793024	      0.67826328	     21.63428664	     -3.61544431	     -0.11357784	    -38.74929000	     -3.87804042	      9.98982699	     -6.80530241	      3.90723208	     -9.36624404	    -10.51076794	     11.16216510	     -6.76847107	     -8.60429134	     -5.58344867	     -5.59593838
      1.88000000	      4.45027097	     -0.85019970	     33.83234340	      0.36279895	      0.92692497	      0.67200270	     21.52049730	     -3.53281485	     -0.22180169	    -35.50133225	     -3.81702562	      9.91637047	     -7.41881825	      3.90196313	     -8.19078984	    -10.26993633	     11.38844716	     -6.85100559	     -8.56171683	     -5.66578526	     -5.99666022
      1.89000000	      4.38999999	     -0.80913322	     35.04060360	      0.36872059	      0.92585875	      0.66574931	     21.33021341	     -3.42349004	     -0.30640864	    -32.16168075	     -3.77453535	      9.95249359	     -8.05451753	      3.86634523	     -7.08560838	    -10.03347129	     11.62378190	     -6.95892896	     -8.52373502	     -5.74315172	     -6.34208073
      1.90000000	      4.27207947	     -0.78977242	     36.23532269	      0.37462441	      0.92461567	      0.65948585	     21.16569214	     -3.34072255	     -0.42538113	    -28.77905004	     -3.82383048	     10.16841564	     -8.57569021	      3.82278394	     -5.99094655	     -9.90562882	     11.89159053	     -7.06225550	     -8.42839117	     -5.83435370	     -6.64608958
      1.91000000	      4.09463026	     -0.80639459	     37.42211486	      0.38054869	      0.92318818	      0.65322108	     21.04510833	     -3.27789373	     -0.62438245	    -25.39157726	     -3.93143258	     10.49343625	     -8.98058855	      3.76363596	     -4.93619303	     -9.86940872	     12.20277805	     -7.15488716	     -8.25831709	     -5.93928871	     -6.95510154
      1.92000000	      3.96463089	     -0.80031818	     38.53853984	      0.38662676	      0.92176205	      0.64693292	     20.82822251	     -3.18978134	     -0.83587483	    -22.00170951	     -4.01991559	     11.09565665	     -9.46987671	      3.68898469	     -3.96342288	     -9.80506750	     12.49968377	     -7.28967286	     -8.13683034	     -6.04096238	     -7.18109750
      1.93000000	      3.76981126	     -0.82148453	     39.65764333	      0.39267657	      0.92014509	      0.64060637	     20.68336701	     -3.13910618	     -1.18387942	    -18.70113416	     -4.15527845	     11.73371412	     -9.82652179	      3.61820686	     -3.05651312	     -9.86344397	     12.83942961	     -7.40189854	     -7.94819964	     -6.16035085	     -7.42370853
      1.94000000	      3.58795880	     -0.83257659	     40.70808863	      0.39885955	      0.91847237	      0.63428661	     20.52460525	     -3.06794771	     -1.56200253	    -15.52319100	     -4.29197918	     12.60569931	    -10.21863381	      3.54591949	     -2.21842297	     -9.91269972	     13.17340666	     -7.53272706	     -7.77243665	     -6.29288071	     -7.58559351
      1.95000000	      3.38581981	     -0.85102775	     41.73256055	      0.40508593	      0.91668631	      0.62793431	     20.41902264	     -3.00071498	     -2.01819299	    -12.55847239	     -4.43307484	     13.52940727	    -10.56812137	      3.47506444	     -1.47265733	    -10.01723589	     13.52015100	     -7.65005136	     -7.57957715	     -6.43541796	     -7.72311812
      1.96000000	      3.18147692	     -0.86055612	     42.69738309	      0.41140796	      0.91483362	      0.62160362	     20.36195382	     -2.92186452	     -2.46969757	     -9.87382987	     -4.55970144	     14.52121134	    -10.92058057	      3.41247053	     -0.81976167	    -10.14423902	     13.86831976	     -7.75507361	     -7.39519776	     -6.59775335	     -7.80891553
      1.97000000	      2.98134772	     -0.85562376	     43.59943081	      0.41781048	      0.91293582	      0.61529458	     20.36467220	     -2.83437342	     -2.86465758	     -7.54475606	     -4.65532726	     15.53330527	    -11.28717230	      3.36014279	     -0.26914424	    -10.28738140	     14.22102536	     -7.83912953	     -7.23242080	     -6.77521880	     -7.84645535
      1.98000000	      2.79331928	     -0.84674685	     44.44518370	      0.42428451	      0.91100978	      0.60900741	     20.44397542	     -2.73373962	     -3.17894939	     -5.63723441	     -4.70357911	     16.44997137	    -11.66160905	      3.30213853	      0.18502911	    -10.45550939	     14.56768256	     -7.89178512	     -7.09439060	     -6.94849251	     -7.84344817
      1.99000000	      2.63036742	     -0.82396411	     45.22523627	      0.43082266	      0.90910257	      0.60274539	     20.59241954	     -2.62384527	     -3.35330600	     -4.20020915	     -4.69891589	     17.24524512	    -12.06641130	      3.24041314	      0.55142080	    -10.63560439	     14.90961242	     -7.90970040	     -7.00074453	     -7.11193799	     -7.79444456
      2.00000000	      2.50291022	     -0.79638677	     45.95319958	      0.43742271	      0.90723487	      0.59648755	     20.80588333	     -2.50164210	     -3.36552263	     -3.25875192	     -4.63285436	     17.81916151	    -12.49723154	      3.15541402	      0.85762338	    -10.83908251	     15.24036379	     -7.89003372	     -6.95015862	     -7.24607035	     -7.70994611
      2.01000000	      2.41837670	     -0.75391722	     46.61345009	      0.44411769	      0.90543877	      0.59021459	     21.06644442	     -2.36694826	     -3.17104598	     -2.81603778	     -4.47790382	     18.23755396	    -12.98740778	      3.05248546	      1.07669924	    -11.02746897	     15.55326604	     -7.83210567	     -6.94875176	     -7.34672848	     -7.60857343
      2.02000000	      2.36071041	     -0.71866382	     47.22338937	      0.45088943	      0.90369768	      0.58390908	     21.38586549	     -2.21939757	     -2.76488332	     -2.84369143	     -4.28835572	     18.30499838	    -13.48977442	      2.92425084	      1.25985460	    -11.23404352	     15.84087405	     -7.78824080	     -6.96551332	     -7.40733590	     -7.47636284
      2.03000000	      2.36548017	     -0.67601539	     47.81561002	      0.45772800	      0.90207549	      0.57751474	     21.70929402	     -2.04998016	     -2.20174882	     -3.31123417	     -4.07806570	     18.32868173	    -14.04512141	      2.74526983	      1.45491984	    -11.45266747	     16.11066393	     -7.70993068	     -7.04042498	     -7.40294186	     -7.35793533
      2.04000000	      2.41484053	     -0.63020785	     48.38007298	      0.46468426	      0.90055474	      0.57101235	     22.03091051	     -1.85319063	     -1.46053285	     -4.15556452	     -3.83530970	     18.23252573	    -14.63928308	      2.52624835	      1.64771385	    -11.68122410	     16.33166262	     -7.58605595	     -7.14177346	     -7.34654270	     -7.23057248
      2.05000000	      2.49124061	     -0.58079062	     48.90075011	      0.47183396	      0.89913739	      0.56442415	     22.34544394	     -1.61756262	     -0.53654250	     -5.31019053	     -3.54767075	     17.76950682	    -15.24917265	      2.27772558	      1.78766739	    -11.94067046	     16.39643189	     -7.30160475	     -7.24752704	     -7.26571626	     -7.06828026
      2.06000000	      2.58587258	     -0.56881288	     49.44984892	      0.47909987	      0.89778650	      0.55763651	     22.65267564	     -1.34513286	      0.45370190	     -6.67780693	     -3.37187470	     17.16972080	    -15.84076920	      1.96731923	      2.01868852	    -12.21902281	     16.49089156	     -7.03857547	     -7.31104609	     -7.11863395	     -6.96431744
      2.07000000	      2.69610997	     -0.58138623	     50.01412715	      0.48651561	      0.89653617	      0.55067201	     22.93219251	     -1.03308348	      1.46762979	     -8.19140855	     -3.24473342	     16.46970747	    -16.39457643	      1.60848721	      2.30989442	    -12.56828333	     16.49112810	     -6.75277574	     -7.33884550	     -6.93258161	     -6.84260940
      2.08000000	      2.80824881	     -0.61141883	     50.59304893	      0.49408165	      0.89539281	      0.54349039	     23.18096596	     -0.69808883	      2.47150512	     -9.80295391	     -3.13492582	     15.74758005	    -16.90420583	      1.21686524	      2.60684780	    -12.98778333	     16.37059784	     -6.45067763	     -7.31819153	     -6.71765611	     -6.75071046
      2.09000000	      2.91976401	     -0.67552165	     51.20521110	      0.50177560	      0.89436749	      0.53608126	     23.41148728	     -0.34309509	      3.34668739	    -11.46891111	     -3.09311400	     14.94914615	    -17.33849352	      0.78284963	      2.97526635	    -13.50302254	     16.14919139	     -6.09593523	     -7.23213534	     -6.47101122	     -6.65285516
      2.10000000	      3.02211053	     -0.76676114	     51.86502917	      0.50951024	      0.89349088	      0.52841879	     23.62068048	     -0.00039144	      4.03862392	    -13.14609289	     -3.11994156	     14.11264113	    -17.66323123	      0.32103425	      3.39561923	    -14.16285452	     15.77119145	     -5.69045871	     -7.08483318	     -6.19711316	     -6.57313702
      2.11000000	      3.11889303	     -0.87066643	     52.56056845	      0.51729424	      0.89280213	      0.52053480	     23.80243230	      0.31847693	      4.52174377	    -14.81933232	     -3.19679320	     13.33860615	    -17.88049218	     -0.15584357	      3.84660410	    -14.98403207	     15.23574015	     -5.26774476	     -6.89204206	     -5.91410346	     -6.50408061
      2.12000000	      3.20694602	     -0.97908785	     53.27277268	      0.52504685	      0.89231445	      0.51240843	     23.95705608	      0.59396145	      4.79897377	    -16.47352729	     -3.27543767	     12.59574795	    -17.97372367	     -0.62143907	      4.29244344	    -15.99883963	     14.52080068	     -4.78942447	     -6.66183395	     -5.61787269	     -6.40131243
